<?xml version="1.0" encoding="UTF-8" standalone="no"?>
<!-- Created with Inkscape (http://www.inkscape.org/) -->

<svg
   xmlns:dc="http://purl.org/dc/elements/1.1/"
   xmlns:cc="http://creativecommons.org/ns#"
   xmlns:rdf="http://www.w3.org/1999/02/22-rdf-syntax-ns#"
   xmlns:svg="http://www.w3.org/2000/svg"
   xmlns="http://www.w3.org/2000/svg"
   xmlns:sodipodi="http://sodipodi.sourceforge.net/DTD/sodipodi-0.dtd"
   xmlns:inkscape="http://www.inkscape.org/namespaces/inkscape"
   width="150"
   height="150"
   viewBox="0 0 39.6875 39.6875"
   version="1.1"
   id="svg5068"
   inkscape:version="0.92.2 (5c3e80d, 2017-08-06)"
   sodipodi:docname="ecuireuil.svg">
  <defs
     id="defs5062" />
  <sodipodi:namedview
     id="base"
     inkscape:zoom="0.35"
     inkscape:cx="-101.42857"
     inkscape:cy="560"
     inkscape:document-units="mm"
     inkscape:current-layer="layer1"
     showgrid="false"
     inkscape:window-width="1128"
     inkscape:window-height="600"
     inkscape:window-x="2246"
     inkscape:window-y="215"
     inkscape:window-maximized="0"
     units="px" />
  <metadata
     id="metadata5065">
    <rdf:RDF>
      <cc:Work
         rdf:about="">
        <dc:format>image/svg+xml</dc:format>
        <dc:type
           rdf:resource="http://purl.org/dc/dcmitype/StillImage" />
        <dc:title></dc:title>
      </cc:Work>
    </rdf:RDF>
  </metadata>
  <g
     inkscape:label="Layer 1"
     inkscape:groupmode="layer"
     id="layer1"
     transform="translate(0,-257.3125)">
    <path
       id="path4529"
       d="m 29.608138,257.3125 c -5.566686,0 -10.07937,3.70963 -10.07937,8.27745 0,5.48694 1.259923,8.5986 0,17.23595 0,-12.7567 -6.968934,-17.97379 -10.0793629,-17.97379 0.1285891,-1.42495 -1.2187769,-1.86997 -1.2187769,-1.86997 0,0 -0.5512147,0.31555 -0.7620164,0.956 -0.6784267,-0.88823 -1.4234726,-0.77692 -1.4234726,-0.77692 l -0.3343138,1.64247 c 0,0 -4.6083554,1.81057 -4.6709576,9.13752 0.535032,0.95605 3.8939431,1.71356 6.2789718,1.22704 2.250415,0.13092 1.6926632,2.24341 1.1887738,2.81028 -2.1259972,2.39178 -4.0978919,-0.82228 -6.6177312,-0.82228 -2.5198429,0 -2.5198429,2.83483 0,2.83483 2.5198393,0 2.5198393,2.83482 7.5595229,2.83482 -7.7957586,3.41063 0,11.33927 0,11.33927 H 6.929563 C 4.4097215,294.16517 4.4097215,297 4.4097215,297 c 0,0 10.0793645,0 15.1190465,0 7.559526,0 12.599206,-2.83483 12.599206,-9.84135 0,-2.40694 -1.090575,-5.07739 -2.519836,-7.18574 -2.793208,-4.12037 0.569049,-7.58119 2.519836,-5.65148 1.950792,1.92972 7.559526,2.83482 7.559526,-5.66964 0,-6.26252 -4.512681,-11.33929 -10.079362,-11.33929 z M 5.6696433,271.48661 c -0.6958711,0 -1.2599218,-0.6346 -1.2599218,-1.41741 0,-0.78286 0.5640507,-1.41741 1.2599218,-1.41741 0.6958293,0 1.2599197,0.63455 1.2599197,1.41741 0,0.78281 -0.5640904,1.41741 -1.2599197,1.41741 z"
       inkscape:connector-curvature="0"
       style="fill:#000000;fill-opacity:1;stroke:none;stroke-width:1.59906411;stroke-miterlimit:4;stroke-dasharray:none;stroke-opacity:0" />
  </g>
</svg>
