<?xml version="1.0" encoding="UTF-8" standalone="no"?>
<svg
   xmlns:dc="http://purl.org/dc/elements/1.1/"
   xmlns:cc="http://creativecommons.org/ns#"
   xmlns:rdf="http://www.w3.org/1999/02/22-rdf-syntax-ns#"
   xmlns:svg="http://www.w3.org/2000/svg"
   xmlns="http://www.w3.org/2000/svg"
   xmlns:sodipodi="http://sodipodi.sourceforge.net/DTD/sodipodi-0.dtd"
   xmlns:inkscape="http://www.inkscape.org/namespaces/inkscape"
   width="510"
   height="490"
   version="1"
   id="svg26"
   sodipodi:docname="SquirrelAndCrossbones.svg"
   inkscape:version="0.92.2 (5c3e80d, 2017-08-06)">
  <metadata
     id="metadata32">
    <rdf:RDF>
      <cc:Work
         rdf:about="">
        <dc:format>image/svg+xml</dc:format>
        <dc:type
           rdf:resource="http://purl.org/dc/dcmitype/StillImage" />
        <dc:title></dc:title>
      </cc:Work>
    </rdf:RDF>
  </metadata>
  <defs
     id="defs30" />
  <sodipodi:namedview
     pagecolor="#ffffff"
     bordercolor="#666666"
     borderopacity="1"
     objecttolerance="10"
     gridtolerance="10"
     guidetolerance="10"
     inkscape:pageopacity="0"
     inkscape:pageshadow="2"
     inkscape:window-width="1059"
     inkscape:window-height="686"
     id="namedview28"
     showgrid="false"
     inkscape:zoom="0.68113143"
     inkscape:cx="224.30379"
     inkscape:cy="223.58224"
     inkscape:window-x="277"
     inkscape:window-y="288"
     inkscape:window-maximized="0"
     inkscape:current-layer="layer1" />
  <g
     inkscape:groupmode="layer"
     id="layer2"
     inkscape:label="Layer 2"
     style="display:inline"
     sodipodi:insensitive="true">
    <rect
       style="opacity:1;fill:#000000;fill-opacity:1;fill-rule:nonzero;stroke:#000000;stroke-width:12.5;stroke-linecap:round;stroke-linejoin:miter;stroke-miterlimit:4;stroke-dasharray:none;stroke-dashoffset:128.51812744;stroke-opacity:1"
       id="rect4545"
       width="526.33472"
       height="514.91528"
       x="-9.3432207"
       y="-19.724577" />
  </g>
  <g
     inkscape:groupmode="layer"
     id="layer1"
     inkscape:label="Layer 1">
    <path
       d="M335.4 412.27l63.28 32.9c14.98 13.03 11.24 21.9 21.65 29.96 10.26 9.43 16.8 10.96 22.9 2.08 4.85-10.1 3.88-20.2 5.4-31.2 7.08-6.8 12.9-10.2 18.74-17 6.38-7.1 6.1-14.1-3.75-19.1-8.2-3.3-15.96-5-25.8-2.1-6.26 2-12.92 3.1-21.24-.4l-68.28-31.7-194-67.3c-26.1-12.7-47.78-22.2-73.6-36.5-14.02-11.1-9.5-23.8-26.48-34.1-7.47-3.7-12.87-5.4-18.85 4.8-3.82 9-3.52 18.6-4.1 27.9-6.68 7.2-14.24 11.4-19.73 20.3-7.95 12.8 4.1 17 10.6 18.6 18.44 4.6 25.1-3.7 42.1-.3 33.05 15.4 66.4 31.4 98.3 47.1z"
       id="path2"
       style="stroke:#00ff00;stroke-opacity:1;fill:#000000;fill-opacity:1"
       stroke-linejoin="round"
       stroke-width="12.5"
       stroke="#000"
       fill="#FFF" />
    <path
       d="M349.56 354.82l94.5-44.54c17.9-7.08 20.4 2.9 36.2 0 12.08-.14 22.07-4.86 21.24-16.23-6.1-9.03-11.8-14.7-22.48-24.57.56-10.54-1.4-20.67-5.4-30.8-4.17-5.97-11.67-8.6-22.9 2.08-11.38 8.6-7.78 20.12-22.07 32.05-23.3 11.6-44.54 21.8-70.35 34.6l-196.5 67.9c-22.75 12.1-43.42 23.3-69.5 33.3-21.24 5.3-20.4-7.7-46.2.9-7.37 5.8-7.23 14.2-1.26 20.4 6.93 6.8 11.8 11.1 17.9 17.1 1.94 8.6 2.22 16 3.33 26.3 4.16 12.6 13.33 11.9 21.23 5.8 3.47-4.3 7.77-8.2 10.4-12.9 3.6-6.2 7.64-13.3 12.5-19.1l62.85-33.3z"
       id="path4"
       style="stroke:#00ff00;stroke-opacity:1;fill:#000000;fill-opacity:1"
       stroke-linejoin="round"
       stroke-width="12.5"
       stroke="#000"
       fill="#FFF" />
    <path
       id="path4529"
       d="m 341.13992,13.922627 c -41.35369,0 -74.87741,26.652509 -74.87741,59.470908 0,39.421825 9.35969,61.778095 0,123.834695 0,-91.65281 -51.77071,-129.135934 -74.87741,-129.135934 0.95526,-10.237728 -9.05404,-13.435091 -9.05404,-13.435091 0,0 -4.09485,2.267143 -5.66084,6.86856 -5.03988,-6.381628 -10.57465,-5.581912 -10.57465,-5.581912 l -2.48358,11.800612 c 0,0 -34.23445,13.008341 -34.6995,65.650135 3.97463,6.86888 28.92724,12.31138 46.6451,8.81586 16.71785,0.9407 12.57444,16.11816 8.83113,20.19101 -15.79355,17.18422 -30.44233,-5.90781 -49.16166,-5.90781 -18.71937,0 -18.71937,20.36728 0,20.36728 18.71933,0 18.71933,20.36729 56.15804,20.36729 -57.91299,24.50438 0,81.46914 0,81.46914 h -18.71936 c -18.71935,0 -18.71935,20.3673 -18.71935,20.3673 h 112.31612 c 56.15806,0 93.59676,-20.3673 93.59676,-70.70696 0,-17.29308 -8.10168,-36.47939 -18.71935,-51.62725 -20.75012,-29.60354 4.22734,-54.46849 18.71935,-40.60409 14.49199,13.86439 56.15804,20.36729 56.15804,-40.7346 0,-44.994189 -33.52371,-81.469143 -74.87739,-81.469143 z"
       inkscape:connector-curvature="0"
       style="fill:#000000;fill-opacity:0;stroke:#00ff00;stroke-width:11.68230343;stroke-miterlimit:4;stroke-dasharray:none;stroke-opacity:1"
       sodipodi:nodetypes="sscccccccccssccscssssss" />
  </g>
</svg>
